<svg xmlns="http://www.w3.org/2000/svg" width="512" height="512" viewBox="0 0 512 512">
<g>
<path d="M 0.13 353.25 L 0.00 512.00 L 0.00 0.00 L 0.13 82.75 C0.23,153.72 0.43,164.29 1.52,157.00 C6.96,120.55 23.34,88.79 47.82,67.22 C67.57,49.82 89.88,39.01 115.50,34.44 C131.01,31.67 163.60,31.88 179.50,34.86 C207.50,40.10 229.51,51.03 250.80,70.28 L 256.10 75.07 L 258.89 73.08 C260.42,71.99 262.30,70.34 263.07,69.42 C265.18,66.87 278.73,56.83 285.50,52.80 C301.29,43.39 314.88,38.34 333.89,34.82 C349.31,31.96 382.45,31.72 397.00,34.36 C422.14,38.91 440.38,47.29 460.50,63.53 C487.54,85.36 504.87,117.57 511.33,158.00 C511.55,159.38 511.79,124.39 511.86,80.25 L 512.00 0.00 L 512.00 512.00 L 511.90 355.75 C511.81,224.83 511.59,200.72 510.51,207.00 C502.47,253.80 475.85,299.55 428.53,347.85 C394.52,382.57 358.16,412.23 305.50,448.20 C291.13,458.02 257.25,480.00 256.50,480.00 C255.76,480.00 222.06,458.14 207.50,448.22 C124.21,391.48 67.16,338.10 33.57,285.50 C30.41,280.55 24.31,269.30 20.02,260.50 C9.60,239.11 4.58,223.52 1.52,203.00 C0.46,195.92 0.23,220.94 0.13,353.25 ZM 187.50 363.66 C191.67,365.58 198.38,364.72 213.15,360.37 C242.56,351.73 243.30,351.59 259.50,351.59 C276.08,351.59 278.27,351.99 304.00,359.68 C327.82,366.80 334.28,366.16 339.20,356.17 C341.28,351.95 341.50,350.11 341.50,337.00 C341.50,326.07 341.04,320.78 339.65,315.50 C337.13,306.01 328.23,287.97 322.03,279.83 C314.70,270.18 299.51,256.25 290.27,250.70 C269.63,238.29 253.83,237.55 234.18,248.07 C198.60,267.13 174.96,306.11 177.28,341.90 C178.09,354.45 181.01,360.67 187.50,363.66 ZM 293.00 223.97 C308.31,226.66 324.72,211.12 329.57,189.34 C333.46,171.83 327.29,153.71 315.49,147.99 C309.93,145.30 300.77,145.53 294.50,148.51 C284.49,153.27 275.20,167.17 272.44,181.50 C268.41,202.41 277.54,221.26 293.00,223.97 ZM 219.33 223.87 C235.18,226.69 248.00,211.77 248.00,190.49 C248.00,173.37 236.90,153.95 223.69,147.95 C218.07,145.39 209.11,145.39 204.12,147.94 C194.98,152.60 189.83,162.15 189.20,175.56 C188.44,191.77 192.73,203.89 202.77,213.93 C209.25,220.41 213.20,222.78 219.33,223.87 ZM 341.82 275.65 C353.38,280.78 371.64,270.63 379.50,254.69 C386.20,241.09 386.63,228.09 380.68,219.34 C376.51,213.22 372.19,211.00 364.43,211.00 C341.27,211.00 320.67,244.60 331.15,265.27 C333.29,269.48 337.78,273.85 341.82,275.65 ZM 163.34 275.91 C172.74,278.63 181.44,275.59 186.68,267.74 C197.24,251.94 186.26,222.42 166.44,213.34 C159.02,209.95 149.22,210.24 143.61,214.02 C139.53,216.78 135.42,224.17 134.44,230.53 C133.06,239.42 138.04,254.11 145.44,263.00 C149.68,268.09 158.62,274.54 163.34,275.91 Z" fill="rgb(0,0,0)"/>
<path d="M 0.16 321.00 C0.25,244.10 0.42,212.91 0.89,204.45 C0.53,215.63 0.26,256.87 0.16,321.00 ZM 0.15 97.51 C0.27,139.15 0.63,161.33 1.13,158.50 C1.46,156.68 1.80,154.90 2.14,153.16 C1.92,154.43 1.71,155.71 1.52,157.00 C0.51,163.75 0.27,155.19 0.15,97.51 ZM 46.26 68.62 C55.80,59.78 66.56,52.38 78.29,46.60 C67.48,51.96 57.35,58.83 47.82,67.22 C47.29,67.68 46.77,68.15 46.26,68.62 ZM 10.10 123.38 C11.73,118.88 13.52,114.62 15.51,110.50 C17.72,105.90 20.14,101.47 22.77,97.21 C17.79,105.34 13.55,114.10 10.10,123.38 ZM 22.54 265.55 C26.45,273.23 30.99,281.46 33.57,285.50 C30.30,280.39 26.36,273.19 22.54,265.55 ZM 1.23 201.91 C1.32,201.90 1.41,202.29 1.52,203.00 C1.67,204.02 1.83,205.04 1.99,206.04 C1.75,204.73 1.49,203.36 1.23,201.91 ZM 8.86 234.01 C9.52,235.93 10.21,237.86 10.95,239.81 C10.13,237.69 9.43,235.74 8.86,234.01 Z" fill="rgb(81,81,81)"/>
<path d="M 2.03 153.69 C2.32,149.91 3.78,143.57 5.83,136.60 C4.34,141.98 3.11,147.51 2.14,153.16 C2.10,153.34 2.07,153.51 2.03,153.69 ZM 8.86 234.01 C9.43,235.74 10.13,237.69 10.95,239.81 C11.77,241.98 12.65,244.17 13.59,246.41 C11.67,241.96 10.11,237.99 9.14,235.00 C8.80,233.98 8.47,232.92 8.14,231.84 C8.38,232.56 8.62,233.29 8.86,234.01 ZM 2.07 206.53 C2.56,209.49 3.10,212.36 3.69,215.17 C2.88,211.57 2.29,208.50 2.07,206.53 Z" fill="rgb(189,189,189)"/>
<path d="M 0.02 355.75 C0.03,254.50 0.37,200.03 1.00,201.00 C1.53,201.82 1.98,203.72 1.98,205.21 C2.01,209.16 5.58,224.06 9.14,235.00 C12.95,246.74 25.87,273.44 33.57,285.50 C67.16,338.10 124.21,391.48 207.50,448.22 C222.06,458.14 255.76,480.00 256.50,480.00 C257.25,480.00 291.13,458.02 305.50,448.20 C358.16,412.23 394.52,382.57 428.53,347.85 C475.85,299.55 502.47,253.80 510.51,207.00 C511.59,200.72 511.81,224.83 511.90,355.75 L 512.00 512.00 L 256.00 512.00 L 0.00 512.00 L 0.02 355.75 ZM 187.50 363.66 C181.01,360.67 178.09,354.45 177.28,341.90 C174.96,306.11 198.60,267.13 234.18,248.07 C253.83,237.55 269.63,238.29 290.27,250.70 C299.51,256.25 314.70,270.18 322.03,279.83 C328.23,287.97 337.13,306.01 339.65,315.50 C341.04,320.78 341.50,326.07 341.50,337.00 C341.50,350.11 341.28,351.95 339.20,356.17 C334.28,366.16 327.82,366.80 304.00,359.68 C278.27,351.99 276.08,351.59 259.50,351.59 C243.30,351.59 242.56,351.73 213.15,360.37 C198.38,364.72 191.67,365.58 187.50,363.66 ZM 163.34 275.91 C158.62,274.54 149.68,268.09 145.44,263.00 C138.04,254.11 133.06,239.42 134.44,230.53 C135.42,224.17 139.53,216.78 143.61,214.02 C149.22,210.24 159.02,209.95 166.44,213.34 C186.26,222.42 197.24,251.94 186.68,267.74 C181.44,275.59 172.74,278.63 163.34,275.91 ZM 341.82 275.65 C337.78,273.85 333.29,269.48 331.15,265.27 C320.67,244.60 341.27,211.00 364.43,211.00 C372.19,211.00 376.51,213.22 380.68,219.34 C386.63,228.09 386.20,241.09 379.50,254.69 C371.64,270.63 353.38,280.78 341.82,275.65 ZM 219.33 223.87 C213.20,222.78 209.25,220.41 202.77,213.93 C192.73,203.89 188.44,191.77 189.20,175.56 C189.83,162.15 194.98,152.60 204.12,147.94 C209.11,145.39 218.07,145.39 223.69,147.95 C236.90,153.95 248.00,173.37 248.00,190.49 C248.00,211.77 235.18,226.69 219.33,223.87 ZM 293.00 223.97 C277.54,221.26 268.41,202.41 272.44,181.50 C275.20,167.17 284.49,153.27 294.50,148.51 C300.77,145.53 309.93,145.30 315.49,147.99 C327.29,153.71 333.46,171.83 329.57,189.34 C324.72,211.12 308.31,226.66 293.00,223.97 ZM 0.02 80.25 L 0.00 0.00 L 256.00 0.00 L 512.00 0.00 L 511.86 80.25 C511.79,124.39 511.55,159.38 511.33,158.00 C504.87,117.57 487.54,85.36 460.50,63.53 C440.38,47.29 422.14,38.91 397.00,34.36 C382.45,31.72 349.31,31.96 333.89,34.82 C314.88,38.34 301.29,43.39 285.50,52.80 C278.73,56.83 265.18,66.87 263.07,69.42 C262.30,70.34 260.42,71.99 258.89,73.08 L 256.10 75.07 L 250.80 70.28 C229.51,51.03 207.50,40.10 179.50,34.86 C163.60,31.88 131.01,31.67 115.50,34.44 C71.33,42.33 34.98,69.98 15.51,110.50 C9.22,123.58 2.03,147.16 1.98,154.83 C1.98,156.30 1.53,158.18 1.00,159.00 C0.37,159.98 0.03,132.43 0.02,80.25 Z" fill="rgb(254,254,254)"/>
</g>
</svg>